<svg width="24" height="24" viewBox="0 0 24 24" fill="none" xmlns="http://www.w3.org/2000/svg">
  <path d="M4.35 5.15 12 21.15 19.65 5.15" stroke="currentColor" stroke-width="1.1" stroke-linecap="round" stroke-linejoin="round"/>
  <g transform="translate(3.84 1.5) scale(.72)">
    <path d="M13.95 4.2c1.78 0 3.22 1.25 3.22 2.8 0 .48-.15.96-.42 1.37-.41.62-1.06 1.08-1.85 1.3-.17.05-.34.07-.52.07-.35 0-.62-.27-.62-.6s.27-.57.62-.57c.04 0 .09-.01.16-.03.52-.14.94-.43 1.17-.8.16-.24.24-.5.24-.74 0-.91-.9-1.65-2-1.65-.38 0-.75.09-1.08.26-.58.31-.92.82-.92 1.38v4.82c0 .97-.58 1.87-1.54 2.37-.52.27-1.1.41-1.69.41-1.79 0-3.23-1.25-3.23-2.8 0-.48.15-.95.42-1.37.41-.62 1.06-1.08 1.85-1.3.2-.05.36-.07.52-.07.35 0 .62.25.62.57s-.27.6-.62.6c-.04 0-.09.01-.16.03-.53.15-.95.44-1.18.8-.16.24-.23.5-.23.75 0 .9.9 1.64 2.01 1.64.38 0 .75-.09 1.08-.26.58-.31.92-.82.92-1.38v-4.8c0-.98.58-1.87 1.54-2.38.51-.28 1.09-.43 1.68-.42Z" fill="currentColor"/>
  </g>
</svg>
