<svg xmlns="http://www.w3.org/2000/svg" viewBox="0 0 16 16">
  <defs>
    <linearGradient id="wxml-body" x1="3" x2="12.75" y1="1.25" y2="14.75" gradientUnits="userSpaceOnUse">
      <stop offset="0" stop-color="#F47A52"/>
      <stop offset="1" stop-color="#DD4B25"/>
    </linearGradient>
  </defs>
  <path fill="url(#wxml-body)" d="M3.5 1.25h6l3.25 3.25v9A1.25 1.25 0 0 1 11.5 14.75h-8A1.25 1.25 0 0 1 2.25 13.5v-11A1.25 1.25 0 0 1 3.5 1.25Z"/>
  <path fill="#F9B39A" d="M9.5 1.25 12.75 4.5h-2A1.25 1.25 0 0 1 9.5 3.25Z"/>
  <path fill="#C63F1D" d="M9.5 1.25 12.75 4.5h-1.65A1.6 1.6 0 0 1 9.5 2.9Z" opacity=".55"/>
  <path fill="none" stroke="#FFF" stroke-linecap="round" stroke-linejoin="round" stroke-width="1.15" d="m6.1 6.25-1.55 1.75 1.55 1.75M9.9 6.25 11.45 8 9.9 9.75"/>
  <path fill="none" stroke="#FFF" stroke-linecap="round" stroke-width="1.15" d="M8.7 5.85 7.35 10.15"/>
</svg>
