<svg viewBox="0 0 23 14" fill="none" xmlns="http://www.w3.org/2000/svg">
    <path d="M11.0009 12.8585C10.9016 13.0351 10.6708 13.0854 10.5065 12.9662L4.77692 8.79904C4.68926 8.73523 4.6377 8.63339 4.6377 8.5251V3.50264C4.6377 3.22612 4.9516 3.06626 5.17526 3.22869L8.67977 5.77731C9.00721 6.0158 9.46937 5.91461 9.6679 5.56203L12.5704 0.402267C12.6303 0.295913 12.7431 0.229523 12.8656 0.229523H17.5258C17.7849 0.229523 17.948 0.50862 17.821 0.734219L11.0009 12.8579V12.8585Z" fill="#22FF84"/>
    <mask id="mask0_127_17311" style="mask-type:alpha" maskUnits="userSpaceOnUse" x="4" y="0" width="14" height="14">
        <path d="M11.0009 12.8584C10.9016 13.035 10.6708 13.0853 10.5065 12.966L4.77692 8.79892C4.68926 8.73511 4.6377 8.63327 4.6377 8.52498V3.50251C4.6377 3.22599 4.9516 3.06614 5.17526 3.22857L8.67977 5.77719C9.00721 6.01568 9.46937 5.91448 9.6679 5.56191L12.5704 0.402145C12.6303 0.295791 12.7431 0.229401 12.8656 0.229401H17.5258C17.7849 0.229401 17.948 0.508498 17.821 0.734097L11.0009 12.8578V12.8584Z" fill="black"/>
    </mask>
    <g mask="url(#mask0_127_17311)">
        <g filter="url(#filter0_f_127_17311)">
            <ellipse cx="4.19842" cy="1.01454" rx="4.19842" ry="1.01454" transform="matrix(-0.650065 0.759878 0.759878 0.650065 14.4307 -0.819458)" fill="#00CCC6"/>
        </g>
        <g filter="url(#filter1_f_127_17311)">
            <ellipse cx="4.19842" cy="1.82128" rx="4.19842" ry="1.82128" transform="matrix(-0.588246 -0.808682 -0.808682 0.588246 9.52344 11.4861)" fill="#00CCC6"/>
        </g>
        <g filter="url(#filter2_f_127_17311)">
            <ellipse cx="6.56542" cy="3.8784" rx="1.90727" ry="1.66091" transform="rotate(23.1293 6.56542 3.8784)" fill="#77FF00"/>
        </g>
        <g filter="url(#filter3_f_127_17311)">
            <ellipse cx="16.8381" cy="5.00213" rx="1.68" ry="7.34113" transform="rotate(23.1293 16.8381 5.00213)" fill="#77FF00"/>
        </g>
        <g filter="url(#filter4_f_127_17311)">
            <ellipse cx="1.49171" cy="3.01287" rx="1.49171" ry="3.01287" transform="matrix(0.707107 -0.707107 -0.707107 -0.707107 16.4414 3.5032)" fill="#97FFE2"/>
        </g>
    </g>
    <path d="M2.07027 0C-0.682028 3.93959 -0.698142 10.0462 2.07027 14H3.92985C1.16208 10.0462 1.17819 3.93959 3.92985 0H2.07027Z" fill="white"/>
    <path d="M20.7482 0H18.8887C21.641 3.93959 21.6571 10.0462 18.8887 14H20.7482C23.516 10.0462 23.4999 3.93959 20.7482 0Z" fill="white"/>
    <defs>
        <filter id="filter0_f_127_17311" x="6.88559" y="-2.97821" width="11.1741" height="12.0171" filterUnits="userSpaceOnUse" color-interpolation-filters="sRGB">
            <feFlood flood-opacity="0" result="BackgroundImageFix"/>
            <feBlend mode="normal" in="SourceGraphic" in2="BackgroundImageFix" result="shape"/>
            <feGaussianBlur stdDeviation="1.37508" result="effect1_foregroundBlur_127_17311"/>
        </filter>
        <filter id="filter1_f_127_17311" x="-0.0450752" y="2.85095" width="11.2523" height="12.6227" filterUnits="userSpaceOnUse" color-interpolation-filters="sRGB">
            <feFlood flood-opacity="0" result="BackgroundImageFix"/>
            <feBlend mode="normal" in="SourceGraphic" in2="BackgroundImageFix" result="shape"/>
            <feGaussianBlur stdDeviation="1.37508" result="effect1_foregroundBlur_127_17311"/>
        </filter>
        <filter id="filter2_f_127_17311" x="1.94321" y="-0.573395" width="9.24445" height="8.9036" filterUnits="userSpaceOnUse" color-interpolation-filters="sRGB">
            <feFlood flood-opacity="0" result="BackgroundImageFix"/>
            <feBlend mode="normal" in="SourceGraphic" in2="BackgroundImageFix" result="shape"/>
            <feGaussianBlur stdDeviation="1.37508" result="effect1_foregroundBlur_127_17311"/>
        </filter>
        <filter id="filter3_f_127_17311" x="10.8163" y="-4.53174" width="12.0443" height="19.0678" filterUnits="userSpaceOnUse" color-interpolation-filters="sRGB">
            <feFlood flood-opacity="0" result="BackgroundImageFix"/>
            <feBlend mode="normal" in="SourceGraphic" in2="BackgroundImageFix" result="shape"/>
            <feGaussianBlur stdDeviation="1.37508" result="effect1_foregroundBlur_127_17311"/>
        </filter>
        <filter id="filter4_f_127_17311" x="10.2381" y="-4.80994" width="10.2552" height="10.2559" filterUnits="userSpaceOnUse" color-interpolation-filters="sRGB">
            <feFlood flood-opacity="0" result="BackgroundImageFix"/>
            <feBlend mode="normal" in="SourceGraphic" in2="BackgroundImageFix" result="shape"/>
            <feGaussianBlur stdDeviation="1.37508" result="effect1_foregroundBlur_127_17311"/>
        </filter>
    </defs>
</svg>
